<?xml version="1.0" encoding="UTF-8"?>
<svg id="Ebene_1" xmlns="http://www.w3.org/2000/svg" version="1.1" viewBox="0 0 658.8 254.5">
  <!-- Generator: Adobe Illustrator 30.1.0, SVG Export Plug-In . SVG Version: 2.1.1 Build 136)  -->
  <defs>
    <style>
      .st0 {
        fill: #fff;
      }
    </style>
  </defs>
  <path d="M657.9,133.8c-.6.4-1.5.9-2.6,1.3-1.3.6-2.4.9-3.7,1.2-1.7.4-4,1-7.3,1.3-1.5.1-6.2.5-12.6-.4-7.3-1-12.7-2.9-16.2-4.1-4.6-1.7-8.3-3.5-11-4.8-4.9,9.8-15.8,14.8-26,12.4-7.3-1.7-13.7-8.3-17.2-19.8-6.1,12.3-15.3,19.3-21.4,18.8-3.9-.3-7.2-2.1-7.2-2.1-.8-.4-3.2-1.9-5.4-4.6-2.3-2.9-3.1-5.8-3.6-7.7-.6-2.4-.8-4.4-.8-5.9v-15.2l-25.2,37.3,32.8,48.1c5.3,9,1.4,19.1-9.6,11.7-6.6-4.4-26.4-34.7-32.5-43.3-.4-.5-.2-2.1-1.8-1.3-2.1,1-22.5,33.1-26,38.1-9.6,13.5-19.8,28.5-30.4,41.1-1.8,2.2-17.6,20.8-20,18.4l71.6-104.5c-20.2-33.7-41.6-67.2-57.8-103.1-3.1-6.9-10.1-21.6-11-28.2-.3-1.8-.9-3.9.5-5.6,1.1-1.4,3.4-.6,4.6.9,1.5,1.9,2.8,4.5,6.6,12.9,1.7,3.6,2.9,6.4,4.2,8.9,4.4,8.3,13.4,23.4,17.8,30.3,14.8,23.1,31.7,48.1,45.1,67.8l33.7-47.3c3.1-2.6,7-1,7.7,2.9.1,8.1-4.5,39.3,5.2,42.1,7.1,2,13.9-9.5,16.3-14.9,1.6-3.5,4.1-16.4,7.7-16.5,6.7-.2,6.3,14,8.2,19.1,3,8.1,9.5,15.3,18.4,10.5,15.6-8.5,6.2-20.5,12.5-32.7,4.5-8.5,14.8-9.1,16,.7.9,7.5-4.5,12.6-3.4,18.4.7,3.6,3.3,5.8,6.8,8.6,7.7,6.4,16.6,7.7,21.5,8,5,.3,10.1.4,15.2,0,.2,0,1.1,0,1.2.2.1.3-.5.8-.9,1.1h0Z"/>
  <path d="M282.6,130.3c-10.7,5.2-22.6,5.9-33.7,1.6-3.6-1.4-13.9-6.5-4.7-7.8,10.9-1.5,23.3.6,34.1-4.3l-27.4-66.2c-2.8-.3-1.7,0-2.1,1.6-19.3,85.1-130.6,130.1-206.2,89C23.6,133.8-3,109.6.3,85.7c.1-.9,2.4-8,4.2-5.8-5.6,22.9,20.3,45.9,38.3,55.9,56.9,31.4,131.8,11.9,173-35.9,12.6-14.7,28.2-43.6,25.5-63.3-1-7.1-10.8-30-5-34.9,4.1-3.4,9.4-1.1,11.1,3.6,21.3,49.1,44.4,97.5,62.1,148.1,0,7.9-8,12.6-14.8,8.6-4.6-2.7-9.4-25.7-12.1-31.6h0Z"/>
  <path d="M296.2,40.1c12.8,27.2,23.1,56.4,37.5,82.9,3,5.5,13.5,23.9,19.2,25,3,.6,7-3.5,7.4-5.8.9-4.3-15.3-33.9-16.4-42.1-1-7.4,5.2-4.8,8.4,0,5.5,8.2,16.2,31.9,20.3,41.7,1.6,3.8,6.4,13.5,1.6,16.3-6.9,4.1-8.9-5.8-10-5.8-18.4,20.9-36.9-16.5-43.9-30.8-12.4-25.3-21.4-54.1-27.2-81.6,0-.1,0-.4,0-.6.2-.5,1-.6,1.4-.5.4,0,.7.2.9.4.4.3.6.6.7.9h0Z"/>
  <path d="M395.2,156.5c-.3.2-1.6,1.1-3.4.8-1.6-.3-2.6-1.4-2.8-1.6-7.6-19-15.2-37.9-22.8-56.9-.1-.3-.5-1,0-1.1s1,.2,1.2.4c2.3,1.8,4.5,6.3,4.5,6.3.8,1.7,1.5,3.1,1.9,4,.5-1.7,1.8-4,3.7-6.8,4.2-6.4,11.6-7.2,17.9-3.1,8.1,5.3,24.6,35.6,28.4,45.3,1.2,3.2,4.1,9.3,1.6,12-.8.9-2.1,1.2-3,1.3-1.1,0-3,0-4.5-1.2-1.1-.9-1.6-2-2.6-5-1.3-3.7-1.9-5.5-2-6-1.5-5.6-6.2-16.9-9.2-22.5-5.3-10.1-15.8-22.3-19.4-20.1-6.9,4.2-.4,22,1.9,28.2,1.6,4.2,12.9,23.6,8.8,26.1h0Z"/>
  <path d="M452,129c-1.2,1.2-3.8,1.3-9.4,1.4-4.3,0-7.8-.5-10.4-1.1,1,2.6,2.8,6.4,6,10.3,3.2,3.9,6.7,6.3,9.1,7.8,2.2,1.2,5.1,2.5,8.8,3.5,4.8,1.2,9,1.2,12,1-4.9,5.5-9.3,6.9-12.5,7.4-22.9,3.5-46.3-40-33.8-56.8,12.6-17,38.8,18,30.3,26.5h0ZM447,125.1c.7-6.6-9.6-20.6-16.3-20-8.1.8-3.1,20,0,20h16.3Z"/>
  <path d="M340.2,71.7c4.7-.4,6.5,5.4,2.5,8.7-7.5,5.9-10.5-7.9-2.5-8.7Z"/>
  <path class="st0" d="M447,125.1h-16.3c-3.1,0-8-19.2,0-20,6.7-.6,17,13.4,16.3,20Z"/>
</svg>